# xmcd
#
# Track frame offsets:
#	225
#	9948
#	23130
#	33118
#	46943
#	57473
#	68895
#	85728
#	96928
#	113430
#
# Disc length: 1671 seconds
#
# Revision: 0
# Processed by: cddbd v1.5.2PL0 Copyright (c) Steve Scherf et al.
# Submitted via: dBpowerAMP V4.0
#
DISCID=6f06840a
DTITLE=Porter Wagner - Best of Country
DYEAR=1900
DGENRE=Country
TTITLE0=The Race is On
TTITLE1=I Washed My Hands in Muddy Water
TTITLE2=Sticks and Stones
TTITLE3=Patches
TTITLE4=Release Me
TTITLE5=Your Cheating Heart
TTITLE6=For The Good Times
TTITLE7=The Wayward Wind
TTITLE8=The Devil Went Down To Georgia
TTITLE9=Green Green Grass of Home
EXTD=Best of Country
EXTT0=
EXTT1=
EXTT2=
EXTT3=
EXTT4=
EXTT5=
EXTT6=
EXTT7=
EXTT8=
EXTT9=
PLAYORDER=
